<?xml version="1.0" standalone="no"?>
<!DOCTYPE svg PUBLIC "-//W3C//DTD SVG 20010904//EN"
 "http://www.w3.org/TR/2001/REC-SVG-20010904/DTD/svg10.dtd">
<svg version="1.0" xmlns="http://www.w3.org/2000/svg"
 width="2048.000000pt" height="2048.000000pt" viewBox="0 0 2048.000000 2048.000000"
 preserveAspectRatio="xMidYMid meet">

<g transform="translate(0.000000,2048.000000) scale(0.100000,-0.100000)"
fill="#FFFFFF" stroke="none">
<path d="M9935 15993 c-253 -13 -653 -67 -880 -119 -38 -8 -88 -19 -110 -24
-44 -10 -197 -49 -285 -73 -74 -21 -378 -122 -438 -146 -26 -10 -117 -47 -202
-81 -132 -53 -302 -128 -362 -160 -296 -158 -513 -291 -772 -476 -70 -49 -357
-271 -366 -283 -3 -4 -59 -54 -125 -113 -293 -259 -605 -608 -840 -941 -87
-123 -270 -406 -282 -437 -4 -8 -16 -31 -28 -50 -24 -39 -135 -246 -173 -325
-52 -106 -117 -253 -162 -365 -12 -30 -26 -64 -30 -75 -5 -11 -20 -53 -34 -92
-14 -40 -37 -103 -50 -140 -13 -38 -29 -84 -35 -103 -6 -19 -18 -57 -27 -85
-19 -61 -43 -147 -54 -195 -4 -19 -18 -73 -29 -120 -34 -133 -39 -158 -62
-275 -55 -290 -87 -570 -96 -842 l-6 -192 -411 -205 c-226 -113 -505 -257
-621 -322 -1267 -705 -1907 -1297 -1942 -1798 -19 -274 147 -508 469 -661 499
-236 1413 -302 2708 -194 1952 161 4627 735 7190 1540 362 114 1010 329 1010
336 0 3 -8 17 -19 31 -37 53 -61 113 -92 224 -17 62 -33 114 -34 116 -1 1 -47
-14 -101 -33 -297 -108 -1279 -416 -1849 -580 -2392 -689 -4568 -1115 -6395
-1251 -286 -21 -1050 -30 -1275 -15 -472 32 -784 95 -999 203 -92 46 -180 125
-197 175 -96 291 493 849 1511 1435 322 186 1043 559 1055 547 2 -3 9 -50 15
-105 35 -338 74 -569 141 -834 11 -47 25 -101 29 -120 11 -48 35 -134 54 -195
9 -27 21 -66 27 -85 6 -19 22 -65 35 -102 13 -38 36 -101 50 -140 28 -79 33
-94 58 -150 9 -20 16 -39 16 -42 0 -3 9 -28 21 -54 12 -26 25 -56 29 -67 5
-11 45 -96 89 -188 l81 -169 52 6 c29 4 105 13 168 21 63 8 125 16 138 17 12
2 23 5 23 8 1 3 -39 86 -88 185 -72 146 -153 327 -223 500 -44 107 -150 441
-180 565 -30 122 -61 259 -71 310 -76 417 -94 617 -94 1050 0 392 17 607 71
920 8 47 19 108 24 135 36 210 173 688 250 870 5 11 27 67 51 125 54 137 85
204 173 380 75 149 90 176 159 295 64 109 261 413 276 425 4 3 31 39 61 80
119 164 303 375 502 575 115 116 230 227 256 248 26 20 65 53 87 73 97 86 382
299 543 403 175 115 432 252 757 406 163 77 438 178 635 235 143 40 204 57
284 75 119 29 199 45 256 55 30 5 98 16 150 25 294 50 620 70 990 61 151 -3
307 -11 345 -16 39 -6 115 -15 170 -19 98 -9 320 -42 400 -61 22 -5 92 -20
155 -35 117 -26 139 -31 245 -61 328 -93 666 -223 960 -371 833 -420 1547
-1049 2056 -1814 124 -186 120 -179 209 -334 97 -169 183 -341 265 -530 7 -16
24 -56 39 -88 14 -32 26 -62 26 -67 0 -6 4 -18 9 -28 6 -9 22 -51 36 -92 15
-41 30 -84 35 -95 12 -30 70 -213 87 -275 8 -30 19 -71 25 -90 5 -19 13 -51
18 -70 40 -166 51 -211 59 -255 48 -249 76 -449 91 -654 5 -74 11 -136 13
-138 5 -4 211 83 296 126 l64 33 -6 76 c-8 98 -36 302 -66 482 -8 46 -38 186
-70 330 -5 19 -20 78 -34 130 -14 52 -33 121 -41 152 -16 59 -91 289 -106 323
-4 11 -29 76 -56 145 -26 69 -57 148 -70 175 -12 28 -34 77 -49 110 -15 33
-56 118 -91 188 -41 83 -59 129 -51 132 30 10 581 58 882 77 266 17 1016 17
1205 0 631 -56 1008 -181 1100 -363 93 -182 -165 -529 -685 -919 -554 -415
-1507 -932 -2605 -1412 -113 -50 -208 -92 -212 -94 -4 -2 13 -46 37 -97 24
-50 56 -134 72 -184 15 -51 32 -93 37 -93 13 0 417 177 686 301 308 141 891
434 1145 575 686 381 1194 734 1515 1054 403 402 525 752 369 1061 -146 290
-562 477 -1229 553 -235 27 -444 36 -805 36 -469 0 -845 -21 -1385 -76 -135
-14 -272 -27 -305 -30 l-60 -5 -85 128 c-47 70 -90 135 -97 143 -6 8 -49 65
-94 125 -337 452 -790 891 -1274 1231 -55 39 -127 88 -160 109 -117 75 -246
155 -250 155 -2 0 -38 20 -80 45 -339 201 -857 415 -1295 535 -94 26 -218 58
-240 63 -14 2 -92 18 -175 35 -407 81 -746 114 -1152 110 -120 -1 -245 -3
-278 -5z"/>
<path d="M13865 10789 c-446 -33 -844 -322 -1010 -734 -92 -231 -114 -444 -69
-675 94 -477 458 -843 939 -945 101 -22 322 -25 425 -6 441 79 794 382 934
801 46 137 58 217 59 375 1 632 -475 1137 -1118 1188 -27 2 -99 0 -160 -4z"/>
<path d="M15875 10116 c-66 -29 -147 -65 -180 -82 l-60 -29 -12 -155 c-16
-227 -27 -311 -83 -640 -10 -58 -20 -103 -46 -210 -29 -121 -32 -135 -49 -195
-9 -33 -21 -73 -25 -90 -9 -36 -69 -222 -80 -250 -5 -11 -20 -54 -35 -95 -14
-41 -30 -83 -36 -92 -5 -10 -9 -22 -9 -28 0 -5 -12 -35 -26 -67 -15 -32 -32
-71 -39 -88 -53 -123 -168 -360 -214 -440 -15 -27 -38 -68 -51 -90 -296 -527
-719 -1034 -1220 -1462 -212 -181 -543 -408 -850 -582 -105 -60 -436 -219
-540 -261 -58 -23 -114 -45 -125 -50 -64 -27 -308 -109 -440 -148 -716 -212
-1554 -267 -2320 -153 -274 41 -502 94 -800 186 -66 20 -129 40 -140 45 -11 5
-54 20 -95 35 -522 186 -1050 480 -1495 834 -66 53 -128 102 -137 111 -9 8
-46 40 -81 70 -104 88 -444 435 -550 560 -53 63 -144 178 -201 255 -57 77
-113 150 -123 162 l-18 22 -195 -21 c-107 -12 -197 -23 -199 -24 -7 -5 46 -88
150 -234 500 -705 1151 -1287 1919 -1714 66 -36 335 -170 400 -199 19 -8 60
-26 90 -40 30 -14 80 -35 110 -47 57 -23 64 -26 140 -55 25 -10 54 -21 65 -26
66 -27 384 -127 475 -149 19 -4 73 -18 120 -29 47 -12 103 -26 125 -31 56 -14
281 -57 335 -65 25 -3 86 -13 135 -20 250 -38 430 -49 780 -49 204 0 400 5
470 12 435 44 711 95 1117 206 364 99 934 338 1244 521 42 25 77 45 79 45 9 0
318 199 410 264 94 66 289 214 345 262 208 177 261 225 415 379 468 465 885
1063 1153 1655 16 36 39 85 50 110 60 133 151 371 189 495 8 28 19 59 23 70 5
11 16 47 25 80 9 33 21 71 25 85 5 14 20 72 35 130 14 58 30 121 36 140 5 19
18 80 29 135 19 93 26 128 50 275 11 70 46 362 59 505 13 128 14 315 4 314 -5
0 -62 -24 -128 -53z"/>
</g>
</svg>
