<svg xmlns="http://www.w3.org/2000/svg" xmlns:xlink="http://www.w3.org/1999/xlink" version="1.1" x="0px" y="0px" viewBox="0 0 100 100" style="enable-background:new 0 0 100 100;" xml:space="preserve"><g><g><path fill="white" d="M78.1,51c-0.6,0.2-1.2,0.5-1.8,0.7c0,0.9-0.1,1.9-0.2,2.8c0.6-0.2,1.2-0.4,1.8-0.7C78.1,52.9,78.1,52,78.1,51z"></path><path fill="white" d="M32.8,64.6c-2.2,0.5-4.4,0.9-6.5,1.2c0.5,0.7,1.1,1.5,1.7,2.1c2.1-0.4,4.3-0.9,6.4-1.4C33.8,66,33.3,65.3,32.8,64.6z"></path><path fill="white" d="M31.7,62.9c-1.4-2.4-2.6-5.1-3.2-8c-3.2-13.8,4.7-27.3,17.8-30.1c13-2.8,26.2,6.2,29.4,20c0.4,1.8,0.6,3.6,0.7,5.4    c0.6-0.2,1.2-0.4,1.8-0.6c-0.6-14.5-13-26.1-28.3-26.1c-15.7,0-28.4,12.2-28.4,27.2c0,4.9,1.4,9.6,3.8,13.5    C27.3,63.8,29.5,63.3,31.7,62.9z"></path><path fill="white" d="M76,55.3c-1.6,9.6-8.5,17.6-18.1,19.6c-8.5,1.8-17-1.3-22.8-7.5c-2.2,0.5-4.3,0.9-6.5,1.3c5.2,5.6,12.7,9.1,21.2,9.1    c14.3,0,26.1-10.1,28.1-23.3C77.2,54.8,76.6,55,76,55.3z"></path></g></g><g><g><path fill="white" d="M62.1,55.7c-1.4,0.4-2.8,0.8-4.2,1.3c-3.9,1.1-7.7,2.2-11.6,3.2c-3.8,1-7.6,2-11.3,2.8c-3.7,0.8-7.2,1.6-10.6,2.1    c-3.4,0.6-6.6,1-9.6,1c-0.7,0-1.5,0-2.1-0.2c-0.3-0.1-0.6-0.2-0.7-0.3c-0.1,0-0.1-0.1-0.1-0.1l0,0l0,0l0,0c0-0.2,0.1-0.2,0-0.3    c0.2-0.5,0.7-0.9,1.2-1.3c0.5-0.4,1-0.8,1.5-1.1c2-1.3,4-2.3,5.5-3.1c3.2-1.5,5-2.4,5-2.4s-0.5,0.2-1.4,0.5    c-0.9,0.3-2.2,0.8-3.8,1.5c-1.6,0.7-3.6,1.5-5.8,2.8c-0.5,0.3-1.1,0.6-1.6,1c-0.5,0.4-1.1,0.8-1.6,1.6c-0.1,0.3-0.2,0.6-0.2,0.7    l0,0.1c0,0.2,0,0.1,0,0.2l0,0.1l0,0.1c0.1,0.1,0.1,0.3,0.2,0.3c0.4,0.4,0.8,0.5,1.2,0.6c0.8,0.2,1.5,0.3,2.3,0.3    c3.1,0.1,6.4-0.2,9.9-0.7c1.6-0.2,3.3-0.5,5-0.8c-3.5,0.7-6.8,1.4-10.1,1.9c-3.7,0.5-7.2,1-10.4,0.9c-0.8,0-1.6-0.1-2.2-0.3    c-0.3-0.1-0.6-0.3-0.7-0.4c0,0,0-0.1-0.1-0.1l0,0l0,0l0-0.1l0-0.1l0-0.1c0,0,0-0.1,0-0.1c0.2-0.5,0.8-1,1.3-1.5    c0.5-0.5,1.1-0.8,1.6-1.2c2.2-1.5,4.2-2.5,5.9-3.4c1.7-0.9,3-1.5,4-1.9c0.9-0.4,1.4-0.7,1.4-0.7s-0.5,0.2-1.5,0.6    c-1,0.4-2.4,0.9-4.1,1.7c-1.7,0.8-3.9,1.7-6.2,3.1c-0.6,0.4-1.2,0.7-1.7,1.2c-0.6,0.5-1.2,0.9-1.6,1.8c0,0.1-0.1,0.3-0.1,0.4    l0,0.2l0,0.1l0,0.1l0,0.1c0,0,0,0.2,0,0.1l0,0.1c0.1,0.1,0.1,0.3,0.2,0.4c0.4,0.4,0.8,0.7,1.2,0.8c0.8,0.3,1.7,0.4,2.5,0.5    c3.4,0.2,6.9-0.1,10.7-0.6c3.7-0.5,7.6-1.1,11.7-1.9c4-0.8,8.2-1.7,12.3-2.8c4.2-1,8.4-2.2,12.6-3.4c2.4-0.7,4.8-1.5,7.1-2.2    C62.8,58,62.3,56.9,62.1,55.7z"></path><path fill="white" d="M98.6,41.6l0-0.2l0,0c0-0.1,0,0.1,0-0.1l0-0.1c-0.3-0.7-0.8-0.9-1.3-1.1C97.1,40,97,40,96.9,40c-0.1,0-0.2-0.1-0.3-0.1    c-0.8-0.3-1.6-0.3-2.4-0.3c-0.7,0-1.5,0-2.2,0.1c-0.3,0-0.5,0.1-0.8,0.1c-1.1,0.1-2.2,0.2-3.2,0.3c-2.6,0.3-4.9,0.7-6.8,1.1    c-1.9,0.3-3.3,0.7-4.3,0.9c-1,0.2-1.5,0.3-1.5,0.3s1.2-0.2,3.5-0.5c-0.4,0.1-0.7,0.2-1,0.2c-0.9,0.2-1.4,0.3-1.4,0.3    s2-0.3,5.5-0.8c1.7-0.2,3.9-0.5,6.3-0.7c1.1-0.1,2.3-0.2,3.5-0.2c0.2,0,0.4,0,0.6,0c1.3,0,2.8,0.1,4.1,0.5    c0.1,0.1,0.2,0.2,0.3,0.2l0,0l0,0.1c0,0-0.1,0,0,0c0,0.1-0.1,0.2-0.2,0.3c-0.4,0.5-1.1,1-1.7,1.4c-1.3,0.8-2.8,1.6-4.4,2.3    c-3.1,1.5-6.5,2.8-10,4.1c-2,0.7-4,1.4-6,2.1c0.4,0.9,0.7,1.8,0.7,2.9c0,0.1,0,0.2,0,0.2c1.9-0.7,3.8-1.4,5.6-2.2    c3.8-1.5,7.4-3.1,10.8-4.9c1.7-0.9,3.3-1.8,4.7-2.9c0.7-0.6,1.4-1.1,2-2c0.1-0.1,0.1-0.2,0.2-0.4c0-0.1,0.1-0.1,0.1-0.2    c0-0.1,0-0.2,0.1-0.3C98.6,41.9,98.6,41.7,98.6,41.6z"></path></g><ellipse fill="white" cx="68.5" cy="54.5" rx="5.9" ry="5.9"></ellipse></g></svg>
