<svg xmlns="http://www.w3.org/2000/svg" xmlns:xlink="http://www.w3.org/1999/xlink" viewBox="0 0 100 100" style="enable-background:new 0 0 100 100"><g><g><path fill="#fff" d="M78.1 51c-.6.2-1.2.5-1.8.7.0.9-.1 1.9-.2 2.8.6-.2 1.2-.4 1.8-.7C78.1 52.9 78.1 52 78.1 51z"/><path fill="#fff" d="M32.8 64.6c-2.2.5-4.4.9-6.5 1.2.5.7 1.1 1.5 1.7 2.1 2.1-.4 4.3-.9 6.4-1.4C33.8 66 33.3 65.3 32.8 64.6z"/><path fill="#fff" d="M31.7 62.9c-1.4-2.4-2.6-5.1-3.2-8-3.2-13.8 4.7-27.3 17.8-30.1 13-2.8 26.2 6.2 29.4 20 .4 1.8.6 3.6.7 5.4.6-.2 1.2-.4 1.8-.6-.6-14.5-13-26.1-28.3-26.1-15.7.0-28.4 12.2-28.4 27.2.0 4.9 1.4 9.6 3.8 13.5C27.3 63.8 29.5 63.3 31.7 62.9z"/><path fill="#fff" d="M76 55.3c-1.6 9.6-8.5 17.6-18.1 19.6-8.5 1.8-17-1.3-22.8-7.5-2.2.5-4.3.9-6.5 1.3 5.2 5.6 12.7 9.1 21.2 9.1 14.3.0 26.1-10.1 28.1-23.3C77.2 54.8 76.6 55 76 55.3z"/></g></g><g><g><path fill="#fff" d="M62.1 55.7c-1.4.4-2.8.8-4.2 1.3-3.9 1.1-7.7 2.2-11.6 3.2-3.8 1-7.6 2-11.3 2.8-3.7.8-7.2 1.6-10.6 2.1-3.4.6-6.6 1-9.6 1-.7.0-1.5.0-2.1-.2-.3-.1-.6-.2-.7-.3-.1.0-.1-.1-.1-.1v0 0 0c0-.2.1-.2.0-.3.2-.5.7-.9 1.2-1.3.5-.4 1-.8 1.5-1.1 2-1.3 4-2.3 5.5-3.1 3.2-1.5 5-2.4 5-2.4s-.5.2-1.4.5c-.9.3-2.2.8-3.8 1.5-1.6.7-3.6 1.5-5.8 2.8-.5.3-1.1.6-1.6 1-.5.4-1.1.8-1.6 1.6-.1.3-.2.6-.2.7v.1c0 .2.0.1.0.2v.1.1c.1.1.1.3.2.3.4.4.8.5 1.2.6.8.2 1.5.3 2.3.3 3.1.1 6.4-.2 9.9-.7 1.6-.2 3.3-.5 5-.8-3.5.7-6.8 1.4-10.1 1.9-3.7.5-7.2 1-10.4.9-.8.0-1.6-.1-2.2-.3-.3-.1-.6-.3-.7-.4.0.0.0-.1-.1-.1v0 0-.1-.1-.1c0 0 0-.1.0-.1.2-.5.8-1 1.3-1.5.5-.5 1.1-.8 1.6-1.2 2.2-1.5 4.2-2.5 5.9-3.4 1.7-.9 3-1.5 4-1.9.9-.4 1.4-.7 1.4-.7s-.5.2-1.5.6c-1 .4-2.4.9-4.1 1.7-1.7.8-3.9 1.7-6.2 3.1-.6.4-1.2.7-1.7 1.2-.6.5-1.2.9-1.6 1.8.0.1-.1.3-.1.4v.2.1.1.1c0 0 0 .2.0.1v.1c.1.1.1.3.2.4.4.4.8.7 1.2.8.8.3 1.7.4 2.5.5 3.4.2 6.9-.1 10.7-.6 3.7-.5 7.6-1.1 11.7-1.9 4-.8 8.2-1.7 12.3-2.8 4.2-1 8.4-2.2 12.6-3.4 2.4-.7 4.8-1.5 7.1-2.2C62.8 58 62.3 56.9 62.1 55.7z"/><path fill="#fff" d="M98.6 41.6v-.2.0c0-.1.0.1.0-.1v-.1c-.3-.7-.8-.9-1.3-1.1C97.1 40 97 40 96.9 40c-.1.0-.2-.1-.3-.1-.8-.3-1.6-.3-2.4-.3-.7.0-1.5.0-2.2.1-.3.0-.5.1-.8.1-1.1.1-2.2.2-3.2.3-2.6.3-4.9.7-6.8 1.1-1.9.3-3.3.7-4.3.9-1 .2-1.5.3-1.5.3s1.2-.2 3.5-.5c-.4.1-.7.2-1 .2-.9.2-1.4.3-1.4.3s2-.3 5.5-.8c1.7-.2 3.9-.5 6.3-.7 1.1-.1 2.3-.2 3.5-.2.2.0.4.0.6.0 1.3.0 2.8.1 4.1.5.1.1.2.2.3.2v0 .1c0 0-.1.0.0.0.0.1-.1.2-.2.3-.4.5-1.1 1-1.7 1.4-1.3.8-2.8 1.6-4.4 2.3-3.1 1.5-6.5 2.8-10 4.1-2 .7-4 1.4-6 2.1.4.9.7 1.8.7 2.9.0.1.0.2.0.2 1.9-.7 3.8-1.4 5.6-2.2 3.8-1.5 7.4-3.1 10.8-4.9 1.7-.9 3.3-1.8 4.7-2.9.7-.6 1.4-1.1 2-2 .1-.1.1-.2.2-.4.0-.1.1-.1.1-.2.0-.1.0-.2.1-.3C98.6 41.9 98.6 41.7 98.6 41.6z"/></g><ellipse fill="#fff" cx="68.5" cy="54.5" rx="5.9" ry="5.9"/></g></svg>